<?xml version="1.0" encoding="UTF-8" standalone="no"?>
<svg
   width="112.851pt"
   height="80.6466pt"
   viewBox="0 0 112.851 80.6466"
   version="1.1"
   id="svg4"
   sodipodi:docname="plankton2.svg"
   inkscape:version="1.4.3 (0d15f75, 2025-12-25)"
   xmlns:inkscape="http://www.inkscape.org/namespaces/inkscape"
   xmlns:sodipodi="http://sodipodi.sourceforge.net/DTD/sodipodi-0.dtd"
   xmlns="http://www.w3.org/2000/svg"
   xmlns:svg="http://www.w3.org/2000/svg">
  <defs
     id="defs4" />
  <sodipodi:namedview
     id="namedview4"
     pagecolor="#ffffff"
     bordercolor="#000000"
     borderopacity="0.25"
     inkscape:showpageshadow="2"
     inkscape:pageopacity="0.0"
     inkscape:pagecheckerboard="0"
     inkscape:deskcolor="#d1d1d1"
     inkscape:document-units="pt"
     showgrid="false"
     inkscape:zoom="16.879199"
     inkscape:cx="75.240537"
     inkscape:cy="54.119866"
     inkscape:window-width="3840"
     inkscape:window-height="2054"
     inkscape:window-x="-11"
     inkscape:window-y="-11"
     inkscape:window-maximized="1"
     inkscape:current-layer="svg4" />
  <g
     id="g4">
    <path
       fill-rule="nonzero"
       fill="rgb(46.665955%, 65.098572%, 31.37207%)"
       fill-opacity="1"
       d="M 104.328125 60.585938 C 103.78125 62.542969 91.394531 60.835938 84.132812 59.453125 C 76.207031 57.941406 66.554688 56.105469 55.386719 50.339844 C 44.300781 44.617188 44.964844 41.863281 30.027344 33.152344 C 18.617188 26.503906 13.300781 25.234375 13.644531 23.8125 C 14.296875 21.085938 34.753906 21.519531 53.359375 29.054688 C 61.796875 32.472656 69.109375 37.050781 70.570312 37.972656 C 78.863281 43.21875 79.878906 45.390625 88.757812 51.035156 C 98.847656 57.453125 104.714844 59.207031 104.328125 60.585938 "
       id="path1" />
    <path
       fill-rule="nonzero"
       fill="rgb(89.804077%, 93.333435%, 86.66687%)"
       fill-opacity="1"
       d="M 102.367188 59.96875 C 86.890625 56.90625 72.074219 50.796875 58.785156 42.324219 C 45.6875 33.609375 31.234375 26.953125 15.757812 23.859375 C 19.632812 24.535156 23.476562 25.421875 27.265625 26.496094 C 38.714844 29.652344 49.253906 35.273438 59.183594 41.675781 C 72.417969 50.183594 87.066406 56.339844 102.367188 59.96875 "
       id="path2" />
    <path
       fill-rule="nonzero"
       fill="rgb(46.665955%, 65.098572%, 31.37207%)"
       fill-opacity="1"
       d="M 83.601562 71.820312 C 82.476562 73.519531 71.214844 68.09375 64.726562 64.546875 C 57.648438 60.675781 49.023438 55.960938 40.164062 47.042969 C 31.375 38.195312 32.851562 35.777344 21.308594 22.90625 C 12.492188 13.070312 7.820312 10.234375 8.585938 8.984375 C 10.042969 6.589844 29.375 13.285156 44.773438 26.167969 C 51.753906 32.011719 57.308594 38.609375 58.414062 39.9375 C 64.699219 47.476562 64.996094 49.855469 71.710938 57.957031 C 79.34375 67.160156 84.390625 70.628906 83.601562 71.820312 "
       id="path3" />
    <path
       fill-rule="nonzero"
       fill="rgb(89.804077%, 93.333435%, 86.66687%)"
       fill-opacity="1"
       d="M 81.921875 70.636719 C 68.132812 62.964844 55.910156 52.605469 45.859375 40.460938 C 36.074219 28.148438 24.359375 17.375 10.582031 9.675781 C 14.0625 11.511719 17.449219 13.535156 20.722656 15.722656 C 30.648438 22.238281 38.957031 30.824219 46.441406 39.964844 C 56.425781 52.125 68.472656 62.480469 81.921875 70.636719 "
       id="path4" />
  </g>
</svg>
